<?xml version="1.0" encoding="UTF-8"?>
<svg version="1.1" xmlns="http://www.w3.org/2000/svg" width="226" height="232">
<path d="M0 0 C74.58 0 149.16 0 226 0 C226 76.56 226 153.12 226 232 C151.42 232 76.84 232 0 232 C0 155.44 0 78.88 0 0 Z " fill="#030F1A" transform="translate(0,0)"/>
<path d="M0 0 C74.58 0 149.16 0 226 0 C226 76.56 226 153.12 226 232 C151.42 232 76.84 232 0 232 C0 155.44 0 78.88 0 0 Z M19.125 24.9375 C13.36681877 31.94215811 9.76581597 40.08584557 9.72584534 49.22146606 C9.71587021 50.44925278 9.70589508 51.67703949 9.69561768 52.94203186 C9.69472201 54.2896422 9.69405837 55.63725272 9.69360352 56.98486328 C9.68597566 58.4145399 9.67754708 59.84421243 9.66838074 61.27388 C9.64648508 65.14818182 9.637643 69.02240472 9.63255429 72.89676142 C9.62890356 75.32210243 9.62265965 77.747423 9.6155529 80.1727562 C9.59107133 88.64805757 9.57801021 97.1232979 9.57446289 105.59863281 C9.57083309 113.47509359 9.54097448 121.35116341 9.49905831 129.22750485 C9.46425373 136.00738853 9.44891267 142.78714334 9.44821686 149.56711566 C9.44742721 153.60851759 9.43883451 157.64952132 9.41021919 161.69083023 C9.38386469 165.49792979 9.38192866 169.30430605 9.39787483 173.11145592 C9.39967589 174.49968621 9.39312148 175.88795976 9.37705612 177.27609825 C9.23993583 189.90600778 12.36024812 200.55556535 21 210 C28.74609841 217.85571301 38.0223594 222.01765884 49.0514679 222.26069641 C51.49952172 222.2755873 53.94765758 222.27947596 56.39575195 222.2746582 C57.75000285 222.27901082 59.10425128 222.2841958 60.45849609 222.29014587 C64.12188728 222.30348996 67.78517501 222.30411955 71.44858575 222.30158257 C74.51489782 222.30050946 77.58118925 222.30540507 80.64749688 222.310188 C87.88700269 222.32126792 95.12645662 222.32172953 102.3659668 222.31567383 C109.81465989 222.30963854 117.26316388 222.32193714 124.71182472 222.3432439 C131.12397086 222.36090594 137.53605708 222.36685391 143.94822663 222.36360615 C147.77034443 222.36180003 151.59232739 222.36436178 155.41442299 222.37832069 C159.01210637 222.39096918 162.60949691 222.38888933 166.20717621 222.37590981 C168.14227067 222.37244652 170.07737437 222.38367088 172.01243591 222.39547729 C184.42136911 222.3212868 194.79153129 219.36264138 204.23046875 211.03125 C211.4008476 203.60526665 216.10534713 193.54068888 216.14717102 183.17053223 C216.15432632 181.9538385 216.16148163 180.73714478 216.16885376 179.48358154 C216.17169405 178.13293483 216.17440578 176.78228783 216.17700195 175.43164062 C216.18326795 174.01063878 216.18991487 172.58963856 216.19691467 171.16864014 C216.21795144 166.49785502 216.22832065 161.8270696 216.23828125 157.15625 C216.24232976 155.54587283 216.24644671 153.93549584 216.25063133 152.32511902 C216.26968672 144.7544316 216.28391376 137.18375392 216.2922433 129.61304712 C216.30199999 120.89009419 216.32827683 112.16739609 216.36874419 103.44453287 C216.39898159 96.6936111 216.41371961 89.94276202 216.41702431 83.19177389 C216.41936726 79.16438076 216.42822767 75.13725971 216.45348549 71.10993958 C216.4769034 67.31446649 216.48094502 63.51944193 216.47072411 59.7239151 C216.47023185 58.33849336 216.4764598 56.95304851 216.49028015 55.56769562 C216.61326735 42.49713734 213.99738455 32.69823345 205 23 C194.18328025 12.25523182 183.47540761 10.69536142 168.5925293 10.7253418 C167.2742514 10.72023087 165.95597351 10.71511993 164.5977478 10.70985413 C161.00458581 10.69654336 157.41152951 10.69587667 153.81834769 10.69841743 C150.8068009 10.69949278 147.795275 10.6945893 144.78373271 10.689812 C137.67164227 10.6787437 130.55960464 10.67826396 123.44750977 10.68432617 C116.13855048 10.69036095 108.82978393 10.67806148 101.52085751 10.6567561 C95.22074056 10.63907444 88.92068459 10.63314914 82.62054378 10.63639385 C78.86881405 10.63819679 75.11722176 10.63567056 71.36551476 10.62167931 C67.83345909 10.60899845 64.3017012 10.61114054 60.76964951 10.62409019 C58.87551325 10.6275401 56.98136746 10.61635339 55.08726501 10.60452271 C40.39723384 10.69364044 29.25781847 14.00868518 19.125 24.9375 Z " fill="#FC6D00" transform="translate(0,0)"/>
<path d="M0 0 C1.23502533 2.03415936 2.03420764 3.40960151 1.89453125 5.8203125 C0.55267565 9.08998683 -1.73977817 10.80794143 -4.375 13.125 C-5.35210937 13.99382813 -6.32921875 14.86265625 -7.3359375 15.7578125 C-10 18 -10 18 -13 20 C-12.08809099 24.16392908 -10.17274633 27.60967554 -8.125 31.3125 C-5.47430447 36.12356094 -3.09092945 40.91733187 -1 46 C3.00591056 44.48333971 6.75273628 42.6417459 10.55078125 40.6640625 C11.16841843 40.34343842 11.7860556 40.02281433 12.42240906 39.69247437 C14.38692326 38.67217807 16.34977633 37.64873581 18.3125 36.625 C23.20583392 34.07850005 28.10161919 31.53677831 33 29 C33.86802246 28.54850586 34.73604492 28.09701172 35.63037109 27.63183594 C40.76534967 25 40.76534967 25 43 25 C43.99 27.31 44.98 29.62 46 32 C38.54865589 38.95718866 30.97077732 45.63573594 23 52 C21.6587032 53.07533256 20.31756771 54.15086634 18.9765625 55.2265625 C15.32167314 58.15602788 11.6619348 61.07934755 8 64 C8.89465585 66.25047451 9.79050483 68.50045768 10.6875 70.75 C10.95643066 71.42506592 11.22536133 72.10013184 11.50244141 72.7956543 C13.63499125 78.13079445 15.85126342 83.42700061 18.1171875 88.70703125 C19 91 19 91 19 93 C24.59446402 89.97311637 30.17016412 86.91847426 35.69921875 83.7734375 C82.8129556 57 82.8129556 57 90 57 C90.99 59.31 91.98 61.62 93 64 C83.91239222 72.01921683 74.75734511 79.79908454 65 87 C64.31534668 87.5053125 63.63069336 88.010625 62.92529297 88.53125 C54.94762062 94.39599345 46.90049666 100.15608881 38.6875 105.6875 C38.08373535 106.09742188 37.4799707 106.50734375 36.85791016 106.9296875 C33.67793568 109.04425776 30.60658533 110.73465018 27 112 C27.44472656 113.02480469 27.88945312 114.04960937 28.34765625 115.10546875 C28.91995757 116.46585713 29.49153423 117.82655054 30.0625 119.1875 C30.35705078 119.86103516 30.65160156 120.53457031 30.95507812 121.22851562 C32.18115956 124.18553557 33.00048218 126.64656128 32.99609375 129.86328125 C32 132 32 132 29.4375 133.3125 C28.633125 133.539375 27.82875 133.76625 27 134 C25.8936781 132.43902526 24.79004215 130.87614673 23.6875 129.3125 C23.07261719 128.44238281 22.45773438 127.57226562 21.82421875 126.67578125 C20.11418694 124.16749048 18.53363577 121.61897801 17 119 C16.11957031 119.2165625 15.23914063 119.433125 14.33203125 119.65625 C13.17058594 119.9346875 12.00914063 120.213125 10.8125 120.5 C9.66394531 120.7784375 8.51539062 121.056875 7.33203125 121.34375 C4.40220992 121.92078398 1.96427142 122.2948476 -1 122 C-3 120 -3 120 -3.125 117.4375 C-1.65305497 112.93989017 0.99949488 110.57487686 4.3828125 107.34375 C6.30751683 105.08383866 6.30751683 105.08383866 5.7668457 102.17285156 C4.99810174 98.9921459 3.98359757 96.71063221 2.34765625 93.890625 C1.55391602 92.51197266 1.55391602 92.51197266 0.74414062 91.10546875 C0.18919922 90.16316406 -0.36574219 89.22085938 -0.9375 88.25 C-1.48857422 87.29222656 -2.03964844 86.33445312 -2.60742188 85.34765625 C-5.39931593 80.37090171 -5.39931593 80.37090171 -9 76 C-9.57105469 76.43570313 -10.14210938 76.87140625 -10.73046875 77.3203125 C-20.2151433 84.28679842 -32.7154097 92.14275259 -45 91 C-45.66 90.34 -46.32 89.68 -47 89 C-46.49446575 80.08533498 -39.27321859 74.00461895 -33.0625 68.25 C-28.64251114 64.39193221 -23.99183545 61.07468126 -19 58 C-20.8144475 52.00277354 -23.52533594 46.54342601 -26.25390625 40.92578125 C-26.60582031 40.19230469 -26.95773438 39.45882812 -27.3203125 38.703125 C-27.64273926 38.03958008 -27.96516602 37.37603516 -28.29736328 36.69238281 C-29 35 -29 35 -29 33 C-29.589021 33.4031543 -30.17804199 33.80630859 -30.78491211 34.22167969 C-33.49739282 36.07197998 -36.21733591 37.91101583 -38.9375 39.75 C-39.86369141 40.38421875 -40.78988281 41.0184375 -41.74414062 41.671875 C-51.48015143 48.23087175 -60.92242841 53.39995427 -73 52 C-73.66 51.34 -74.32 50.68 -75 50 C-74.45750601 42.58171004 -68.67225375 36.46075117 -63.43359375 31.63671875 C-54.96288694 25.00388435 -45.47021496 20.04025885 -36 15 C-36.02320313 14.22914062 -36.04640625 13.45828125 -36.0703125 12.6640625 C-36.08835938 11.66117188 -36.10640625 10.65828125 -36.125 9.625 C-36.14820313 8.62726562 -36.17140625 7.62953125 -36.1953125 6.6015625 C-36 4 -36 4 -34 2 C-30.23872509 2.10165608 -29.01010816 2.99079034 -26.1875 5.5625 C-25.465625 6.366875 -24.74375 7.17125 -24 8 C-18.20860552 6.17579929 -12.77414662 3.72859493 -7.2421875 1.2421875 C-4 0 -4 0 0 0 Z " fill="#C66C2E" transform="translate(104,49)"/>
<path d="M0 0 C1.23502533 2.03415936 2.03420764 3.40960151 1.89453125 5.8203125 C0.55267565 9.08998683 -1.73977817 10.80794143 -4.375 13.125 C-5.35210937 13.99382813 -6.32921875 14.86265625 -7.3359375 15.7578125 C-10 18 -10 18 -13 20 C-12.08809099 24.16392908 -10.17274633 27.60967554 -8.125 31.3125 C-6.02467484 35.12462864 -4.00578762 38.88124128 -2.3671875 42.91796875 C-1.35149953 46.0893552 -1.35149953 46.0893552 1 47 C1.78125 48.92578125 1.78125 48.92578125 2.5 51.3125 C3.21876664 53.67583597 3.86817466 55.76883486 5.09375 57.91796875 C6.37429517 60.85991088 6.47338754 62.82624527 6 66 C3.76953125 68.23046875 3.76953125 68.23046875 0.8125 70.1875 C-0.15042969 70.84105469 -1.11335938 71.49460937 -2.10546875 72.16796875 C-4.71491781 73.81956336 -7.3513589 75.41249969 -10 77 C-11.70928722 78.12355017 -13.41758084 79.24861303 -15.125 80.375 C-23.82418684 85.92043851 -34.32098927 91.99339635 -45 91 C-45.66 90.34 -46.32 89.68 -47 89 C-46.49446575 80.08533498 -39.27321859 74.00461895 -33.0625 68.25 C-28.64251114 64.39193221 -23.99183545 61.07468126 -19 58 C-20.8144475 52.00277354 -23.52533594 46.54342601 -26.25390625 40.92578125 C-26.60582031 40.19230469 -26.95773438 39.45882812 -27.3203125 38.703125 C-27.64273926 38.03958008 -27.96516602 37.37603516 -28.29736328 36.69238281 C-29 35 -29 35 -29 33 C-29.589021 33.4031543 -30.17804199 33.80630859 -30.78491211 34.22167969 C-33.49739282 36.07197998 -36.21733591 37.91101583 -38.9375 39.75 C-39.86369141 40.38421875 -40.78988281 41.0184375 -41.74414062 41.671875 C-51.48015143 48.23087175 -60.92242841 53.39995427 -73 52 C-73.66 51.34 -74.32 50.68 -75 50 C-74.45750601 42.58171004 -68.67225375 36.46075117 -63.43359375 31.63671875 C-54.96288694 25.00388435 -45.47021496 20.04025885 -36 15 C-36.02320313 14.22914062 -36.04640625 13.45828125 -36.0703125 12.6640625 C-36.08835938 11.66117188 -36.10640625 10.65828125 -36.125 9.625 C-36.14820313 8.62726562 -36.17140625 7.62953125 -36.1953125 6.6015625 C-36 4 -36 4 -34 2 C-30.23872509 2.10165608 -29.01010816 2.99079034 -26.1875 5.5625 C-25.465625 6.366875 -24.74375 7.17125 -24 8 C-18.20860552 6.17579929 -12.77414662 3.72859493 -7.2421875 1.2421875 C-4 0 -4 0 0 0 Z " fill="#E15E03" transform="translate(104,49)"/>
<path d="M0 0 C1.25404009 2.06547779 2.04728732 3.40890853 1.8515625 5.85546875 C-1.24032424 13.64191746 -12.61548873 20.18564504 -19.22729492 25.24438477 C-21.62061321 27.08226419 -23.88824264 28.8827101 -25.97265625 31.0703125 C-28.15875454 33.1511074 -30.48217805 34.49730305 -33.12207031 35.9375 C-36.33889382 37.75752287 -39.33194539 39.90696257 -42.375 42 C-51.93869012 48.47052623 -61.08764549 53.38080337 -73 52 C-73.66 51.34 -74.32 50.68 -75 50 C-74.45750601 42.58171004 -68.67225375 36.46075117 -63.43359375 31.63671875 C-54.96288694 25.00388435 -45.47021496 20.04025885 -36 15 C-36.02320313 14.22914062 -36.04640625 13.45828125 -36.0703125 12.6640625 C-36.08835938 11.66117188 -36.10640625 10.65828125 -36.125 9.625 C-36.14820313 8.62726562 -36.17140625 7.62953125 -36.1953125 6.6015625 C-36 4 -36 4 -34 2 C-30.23872509 2.10165608 -29.01010816 2.99079034 -26.1875 5.5625 C-25.465625 6.366875 -24.74375 7.17125 -24 8 C-18.20860552 6.17579929 -12.77414662 3.72859493 -7.2421875 1.2421875 C-4 0 -4 0 0 0 Z " fill="#E15E04" transform="translate(104,49)"/>
<path d="M0 0 C74.58 0 149.16 0 226 0 C226 15.18 226 30.36 226 46 C225.67 46 225.34 46 225 46 C224.88785156 45.01773438 224.88785156 45.01773438 224.7734375 44.015625 C222.81114875 30.39503249 216.20408424 19.50582632 205.43359375 10.96484375 C194.31950166 3.34513869 182.83455272 1.39806973 169.58764648 1.48242188 C168.19634271 1.4769851 166.8050447 1.46985381 165.41375732 1.46118164 C161.67609039 1.44313134 157.93887095 1.44993841 154.20119739 1.46269798 C150.2657174 1.47291967 146.33027235 1.46340732 142.39479065 1.45715332 C135.79054986 1.44990418 129.18648881 1.45939323 122.58227539 1.47851562 C114.97550992 1.50028823 107.36917335 1.49321931 99.76241821 1.47121 C93.19892851 1.45298839 86.63556702 1.45053025 80.07206017 1.46096468 C76.1661118 1.46716151 72.26036426 1.46814134 68.35442924 1.45481873 C64.68104602 1.44316126 61.00820954 1.45146346 57.33488464 1.47439575 C55.36446357 1.48210307 53.39399558 1.47041267 51.42359924 1.45788574 C37.00305288 1.59332513 24.79129878 6.45282745 14.1875 16.3125 C7.06654356 23.92867883 2.29321254 33.65429965 1 44 C0.67 44 0.34 44 0 44 C0 29.48 0 14.96 0 0 Z " fill="#051019" transform="translate(0,0)"/>
<path d="M0 0 C0.99 2.31 1.98 4.62 3 7 C-4.45111022 13.95697028 -12.0239953 20.6424684 -20 27 C-21.23203035 28.00098275 -22.4637865 29.00230306 -23.6953125 30.00390625 C-24.96304872 31.02405039 -26.23127246 32.043589 -27.5 33.0625 C-28.39984619 33.79726562 -28.39984619 33.79726562 -29.31787109 34.546875 C-33.6577764 38 -33.6577764 38 -37 38 C-37.84442881 36.10908264 -38.67511587 34.21202485 -39.5 32.3125 C-39.9640625 31.25675781 -40.428125 30.20101562 -40.90625 29.11328125 C-41.94950801 26.14372184 -42.23065301 24.10804937 -42 21 C-32.12171844 15.3779163 -22.15925014 9.97471256 -12 4.875 C-11.03884277 4.38990967 -10.07768555 3.90481934 -9.08740234 3.4050293 C-8.19230957 2.9594165 -7.2972168 2.51380371 -6.375 2.0546875 C-5.57835937 1.65749512 -4.78171875 1.26030273 -3.9609375 0.85107422 C-2 0 -2 0 0 0 Z " fill="#AD7853" transform="translate(147,74)"/>
<path d="M0 0 C0.33 0 0.66 0 1 0 C1 14.52 1 29.04 1 44 C-13.85 44 -28.7 44 -44 44 C-44 43.67 -44 43.34 -44 43 C-43.09121094 42.85304688 -43.09121094 42.85304688 -42.1640625 42.703125 C-27.91435416 40.16010013 -16.52438442 33.97084607 -8 22 C-3.76893238 14.9514703 -1.0476205 8.1642149 0 0 Z " fill="#071019" transform="translate(225,188)"/>
<path d="M0 0 C0.33 0 0.66 0 1 0 C1.14695313 0.90878906 1.14695313 0.90878906 1.296875 1.8359375 C3.83845058 16.07752483 10.02580225 27.48773017 22 36 C28.77428962 40.0164504 35.23432881 42.70572147 43 44 C43 44.33 43 44.66 43 45 C28.81 45 14.62 45 0 45 C0 30.15 0 15.3 0 0 Z " fill="#071019" transform="translate(0,187)"/>
<path d="M0 0 C1.25404009 2.06547779 2.04728732 3.40890853 1.8515625 5.85546875 C-1.76411599 14.9610077 -16.27303332 23.08419493 -24 29 C-24.75410156 29.59941406 -25.50820312 30.19882813 -26.28515625 30.81640625 C-28 32 -28 32 -30 32 C-30.67321284 29.75194998 -31.33834123 27.50147776 -32 25.25 C-32.37125 23.99703125 -32.7425 22.7440625 -33.125 21.453125 C-34 18 -34 18 -34 14 C-29.9387898 12.03898368 -25.87581157 10.08165802 -21.8125 8.125 C-20.08676758 7.29162109 -20.08676758 7.29162109 -18.32617188 6.44140625 C-17.21435547 5.90644531 -16.10253906 5.37148438 -14.95703125 4.8203125 C-13.93585205 4.32805176 -12.91467285 3.83579102 -11.86254883 3.32861328 C-4.69092245 0 -4.69092245 0 0 0 Z " fill="#DB7731" transform="translate(104,49)"/>
<path d="M0 0 C3.09500509 1.54750254 3.35351108 4.01242556 4.56640625 7.1953125 C4.80536118 7.82098114 5.0443161 8.44664978 5.29051208 9.09127808 C5.79572038 10.41988017 6.29733583 11.74985311 6.7956543 13.08105469 C7.55308043 15.09989314 8.32541586 17.11254166 9.09960938 19.125 C9.58945977 20.41892363 10.07841975 21.71318477 10.56640625 23.0078125 C11.00927979 24.17973145 11.45215332 25.35165039 11.90844727 26.55908203 C13.01578338 30.0497542 13.58735599 33.36699523 14 37 C12.68 37.99 11.36 38.98 10 40 C5.28178981 38.50318849 3.5748486 34.63878191 1.1875 30.625 C0.5370874 29.55765625 0.5370874 29.55765625 -0.12646484 28.46875 C-1.43050272 26.31990353 -2.71837281 24.16227598 -4 22 C-4.37721191 21.36416992 -4.75442383 20.72833984 -5.14306641 20.07324219 C-7.11980322 16.72939092 -9.07141468 13.37183129 -11 10 C-7.65996398 5.67760044 -4.67248931 2.82522609 0 0 Z " fill="#F46A0B" transform="translate(123,143)"/>
<path d="M0 0 C1.60546875 2.29296875 1.60546875 2.29296875 3.1875 5.1875 C3.71730469 6.12980469 4.24710938 7.07210937 4.79296875 8.04296875 C6.16876366 11.41344367 6.6171325 13.40327464 6 17 C3.76953125 19.37109375 3.76953125 19.37109375 0.8125 21.4375 C-0.15042969 22.13746094 -1.11335938 22.83742188 -2.10546875 23.55859375 C-5 25 -5 25 -7.62109375 25.1171875 C-11.15822448 23.45607192 -12.09943069 21.11290087 -13.875 17.6875 C-14.49117188 16.53636719 -15.10734375 15.38523437 -15.7421875 14.19921875 C-17 11 -17 11 -17.09375 8.8515625 C-15.3304789 5.86659643 -12.53584449 4.40326717 -9.625 2.6875 C-9.03460938 2.31560547 -8.44421875 1.94371094 -7.8359375 1.56054688 C-3.38791454 -1.12930485 -3.38791454 -1.12930485 0 0 Z " fill="#FA6702" transform="translate(104,98)"/>
<path d="M0 0 C1.23765605 2.03849232 2.0367352 3.40843653 1.88671875 5.82421875 C0.56788938 9.06028906 -1.65150644 10.7592898 -4.25 13.0625 C-5.20390625 13.91972656 -6.1578125 14.77695312 -7.140625 15.66015625 C-9.67190835 17.73152063 -12.14824768 19.41280208 -15 21 C-16.03902033 19.61765122 -17.05563446 18.21844209 -18.0625 16.8125 C-18.63097656 16.03519531 -19.19945313 15.25789063 -19.78515625 14.45703125 C-21 12 -21 12 -21.171875 9.4375 C-19.30680361 5.55815151 -16.05262594 4.71934781 -12.1875 3.1875 C-11.46240234 2.87619141 -10.73730469 2.56488281 -9.99023438 2.24414062 C-6.29418587 0.7055294 -4.11699277 0 0 0 Z " fill="#968377" transform="translate(104,49)"/>
<path d="M0 0 C1.76171875 2.51953125 1.76171875 2.51953125 3.6875 5.8125 C4.33074219 6.89144531 4.97398438 7.97039062 5.63671875 9.08203125 C7 12 7 12 6 15 C3.671875 15.94921875 3.671875 15.94921875 0.75 16.6875 C-0.20390625 16.93886719 -1.1578125 17.19023437 -2.140625 17.44921875 C-4.88434994 17.97772314 -7.21857102 18.25416506 -10 18 C-10.66 17.34 -11.32 16.68 -12 16 C-11.81927803 10.8385804 -10.03360995 8.32381476 -6.5625 4.625 C-5.75941406 3.75101563 -4.95632812 2.87703125 -4.12890625 1.9765625 C-2 0 -2 0 0 0 Z " fill="#DE5C03" transform="translate(113,153)"/>
<path d="M0 0 C2.9642957 2.9642957 3.84535415 4.54891241 5.25 8.375 C5.60578125 9.31085938 5.9615625 10.24671875 6.328125 11.2109375 C7.07998705 14.33203927 7.2089472 16.01861326 6 19 C3.4375 20.3125 3.4375 20.3125 1 21 C-6.48291572 10.62642369 -6.48291572 10.62642369 -9 5 C-6.03 3.35 -3.06 1.7 0 0 Z " fill="#898888" transform="translate(130,162)"/>
</svg>
